<svg xmlns="http://www.w3.org/2000/svg" viewBox="0 0 25 23.44"><title>platformsAsset 69</title><path d="M4.69,1.56V0H6.25V1.56h12.5V0h1.56V1.56H25V23.44H0V1.56ZM20.31,3.13V4.69H18.75V3.13H6.25V4.69H4.69V3.13H1.56V6.25H23.44V3.13Zm3.13,18.75V7.81H1.56V21.88ZM6.25,10.94H4.69V9.38H6.25Zm0,3.12H4.69V12.5H6.25Zm0,3.13H4.69V15.63H6.25Zm4.69-6.25H9.38V9.38h1.56Zm0,3.12H9.38V12.5h1.56Zm0,3.13H9.38V15.63h1.56Zm0,3.12H9.38V18.75h1.56Zm4.68-9.37H14.06V9.38h1.56Zm0,3.12H14.06V12.5h1.56Zm0,3.13H14.06V15.63h1.56Zm0,3.12H14.06V18.75h1.56Zm4.69-6.25H18.75V12.5h1.56Zm0,3.13H18.75V15.63h1.56Zm0,3.12H18.75V18.75h1.56Z"/></svg>