<svg xmlns="http://www.w3.org/2000/svg" viewBox="0 0 15.99 25.58"><title>platformsAsset 70</title><path d="M8,0a7.88,7.88,0,0,1,2.13.29,8.29,8.29,0,0,1,1.91.8,8.15,8.15,0,0,1,1.62,1.25A8.54,8.54,0,0,1,14.9,4a8.29,8.29,0,0,1,.8,1.91A7.86,7.86,0,0,1,16,8a6.32,6.32,0,0,1-.21,1.65,7.35,7.35,0,0,1-.59,1.55L8,25.58.8,11.19A7.35,7.35,0,0,1,.21,9.64,6.32,6.32,0,0,1,0,8,7.86,7.86,0,0,1,.29,5.87,8.29,8.29,0,0,1,1.09,4,8,8,0,0,1,4,1.09,8.29,8.29,0,0,1,5.87.29,7.86,7.86,0,0,1,8,0Zm5.95,10.57h0v0a5.42,5.42,0,0,0,.48-1.23A5.36,5.36,0,0,0,14.59,8a6.34,6.34,0,0,0-.52-2.56,6.45,6.45,0,0,0-1.42-2.09,6.67,6.67,0,0,0-2.09-1.42A6.35,6.35,0,0,0,8,1.4a6.34,6.34,0,0,0-2.56.52A6.74,6.74,0,0,0,1.92,5.43,6.34,6.34,0,0,0,1.4,8a5.36,5.36,0,0,0,.16,1.32A5.42,5.42,0,0,0,2,10.54v0h0L8,22.46ZM8,3.3a4.5,4.5,0,0,1,1.83.37,4.62,4.62,0,0,1,2.5,2.49,4.71,4.71,0,0,1,0,3.66,4.6,4.6,0,0,1-2.5,2.5,4.71,4.71,0,0,1-3.66,0,4.62,4.62,0,0,1-2.49-2.5,4.71,4.71,0,0,1,0-3.66A4.65,4.65,0,0,1,6.16,3.67,4.54,4.54,0,0,1,8,3.3Zm0,8A3.26,3.26,0,0,0,9.28,11,3.34,3.34,0,0,0,11,9.28a3.43,3.43,0,0,0,0-2.57A3.34,3.34,0,0,0,9.28,5,3.43,3.43,0,0,0,6.71,5,3.34,3.34,0,0,0,5,6.71,3.43,3.43,0,0,0,5,9.28,3.34,3.34,0,0,0,6.71,11,3.25,3.25,0,0,0,8,11.29Z"/></svg>