<svg xmlns="http://www.w3.org/2000/svg" xmlns:xlink="http://www.w3.org/1999/xlink" viewBox="0 0 309.05 309.05"><defs><style>.a{fill:#65afe2;}.b{fill:#0058a8;}.b,.d{opacity:0.25;}.c,.e{opacity:0.2;}.c{fill:url(#a);}.d{fill:#b6dcf1;}.e{fill:url(#b);}</style><linearGradient id="a" x1="241.03" y1="105.97" x2="461.5" y2="105.97" gradientUnits="userSpaceOnUse"><stop offset="0" stop-color="#fff" stop-opacity="0.5"/><stop offset="1" stop-color="#fff"/></linearGradient><linearGradient id="b" x1="241.03" y1="59.95" x2="461.5" y2="59.95" xlink:href="#a"/></defs><title>platformsAsset 49quesitons</title><path class="a" d="M242.9,76.77,259.72,60l-6.48-6.48L247,59.71a6.43,6.43,0,0,1-9.06,0L178.24,0H0V309.05H309.05V152L242.9,85.83A6.43,6.43,0,0,1,242.9,76.77Z"/><path class="a" d="M247,59.71l6.23-6.24L226.31,26.54a6.42,6.42,0,0,1,0-9L243.8,0H178.24L238,59.71A6.43,6.43,0,0,0,247,59.71Z"/><path class="b" d="M247,59.71l6.23-6.24L226.31,26.54a6.42,6.42,0,0,1,0-9L243.8,0H178.24L238,59.71A6.43,6.43,0,0,0,247,59.71Z"/><path class="a" d="M259.72,60,242.9,76.77a6.43,6.43,0,0,0,0,9.06L309.05,152v-42.7Z"/><path class="c" d="M259.72,60,242.9,76.77a6.43,6.43,0,0,0,0,9.06L309.05,152v-42.7Z"/><polygon class="a" points="309.05 0 306.72 0 253.24 53.47 259.72 59.95 309.05 10.62 309.05 0"/><polygon class="d" points="309.05 0 306.72 0 253.24 53.47 259.72 59.95 309.05 10.62 309.05 0"/><path class="a" d="M243.8,0,226.31,17.49a6.42,6.42,0,0,0,0,9.05l26.93,26.93L306.72,0Z"/><path class="b" d="M243.8,0,226.31,17.49a6.42,6.42,0,0,0,0,9.05l26.93,26.93L306.72,0Z"/><path class="d" d="M243.8,0,226.31,17.49a6.42,6.42,0,0,0,0,9.05l26.93,26.93L306.72,0Z"/><polygon class="a" points="259.72 59.95 309.05 109.28 309.05 10.62 259.72 59.95"/><polygon class="e" points="259.72 59.95 309.05 109.28 309.05 10.62 259.72 59.95"/><polygon class="d" points="259.72 59.95 309.05 109.28 309.05 10.62 259.72 59.95"/></svg>