<svg xmlns="http://www.w3.org/2000/svg" xmlns:xlink="http://www.w3.org/1999/xlink" viewBox="0 0 312 110"><defs><style>.a{fill:#65afe2;}.b{opacity:0.2;fill:url(#a);}.c{fill:#0058a8;opacity:0.25;}</style><linearGradient id="a" x1="228.87" y1="55" x2="449.34" y2="55" gradientUnits="userSpaceOnUse"><stop offset="0" stop-color="#fff" stop-opacity="0.5"/><stop offset="1" stop-color="#fff"/></linearGradient></defs><title>platformsAsset 48quesitons</title><path class="a" d="M230.74,55.07,285.82,0H0V110H276.61L230.74,64.13A6.43,6.43,0,0,1,230.74,55.07Z"/><path class="a" d="M312,0H285.82L230.74,55.07a6.43,6.43,0,0,0,0,9.06L276.61,110H312Z"/><path class="b" d="M312,0H285.82L230.74,55.07a6.43,6.43,0,0,0,0,9.06L276.61,110H312Z"/><path class="c" d="M242.6,22.32,312,91.72V0H255.87L242.6,13.27A6.42,6.42,0,0,0,242.6,22.32Z"/></svg>