<svg xmlns="http://www.w3.org/2000/svg" viewBox="0 0 25.58 23.98"><title>platformsAsset 31quesitons</title><path d="M20.59,0a4.84,4.84,0,0,1,1.94.39,5.17,5.17,0,0,1,1.59,1.07,5,5,0,0,1,1.07,1.59,5,5,0,0,1,.24,3.16A5.05,5.05,0,0,1,25,7.35a5.71,5.71,0,0,1-.7,1,4.69,4.69,0,0,1-.93.8,10.81,10.81,0,0,1,.46,1.8A11.45,11.45,0,0,1,24,12.79a11.14,11.14,0,0,1-.7,3.92,11,11,0,0,1-2,3.41l2.5,2.5-1.13,1.13-2.5-2.5a11,11,0,0,1-3.41,2,11.2,11.2,0,0,1-11.25-2L3,23.75,1.84,22.62l2.49-2.5a11,11,0,0,1-2-3.41,11.14,11.14,0,0,1-.7-3.92,11.45,11.45,0,0,1,.15-1.85,10.81,10.81,0,0,1,.46-1.8,4.37,4.37,0,0,1-.92-.8,4.81,4.81,0,0,1-.7-1A5.08,5.08,0,0,1,.15,6.21,5,5,0,0,1,.39,3.05,5,5,0,0,1,3.05.39,4.89,4.89,0,0,1,5,0,5,5,0,0,1,6.21.15,5.08,5.08,0,0,1,7.35.59a4.81,4.81,0,0,1,1,.7,4.37,4.37,0,0,1,.8.92,10.81,10.81,0,0,1,1.8-.46,11.48,11.48,0,0,1,3.7,0,10.34,10.34,0,0,1,1.8.46,4.37,4.37,0,0,1,.8-.92,4.87,4.87,0,0,1,1-.7A5,5,0,0,1,19.37.15,4.91,4.91,0,0,1,20.59,0ZM5,1.6a3.25,3.25,0,0,0-1.32.27A3.43,3.43,0,0,0,1.87,3.68,3.25,3.25,0,0,0,1.6,5a3.35,3.35,0,0,0,.33,1.46,3.14,3.14,0,0,0,.93,1.17A11,11,0,0,1,7.63,2.86a3.14,3.14,0,0,0-1.17-.93A3.35,3.35,0,0,0,5,1.6Zm7.79,20.78a9.31,9.31,0,0,0,3.73-.75,9.68,9.68,0,0,0,5.11-5.11,9.31,9.31,0,0,0,.75-3.73,9.34,9.34,0,0,0-.75-3.73A9.68,9.68,0,0,0,16.52,4a9.31,9.31,0,0,0-3.73-.75A9.34,9.34,0,0,0,9.06,4,9.68,9.68,0,0,0,4,9.06a9.34,9.34,0,0,0-.75,3.73A9.31,9.31,0,0,0,4,16.52a9.68,9.68,0,0,0,5.11,5.11A9.34,9.34,0,0,0,12.79,22.38Zm4.8-9.59v1.6h-6.4v-8h1.6v6.39Zm5.13-5.16a3.14,3.14,0,0,0,.93-1.17A3.35,3.35,0,0,0,24,5a3.41,3.41,0,0,0-.26-1.32A3.52,3.52,0,0,0,23,2.6a3.27,3.27,0,0,0-1.08-.73,3.23,3.23,0,0,0-1.31-.27,3.36,3.36,0,0,0-1.47.33A3.31,3.31,0,0,0,18,2.86a11,11,0,0,1,4.77,4.77Z"/></svg>