<svg xmlns="http://www.w3.org/2000/svg" viewBox="0 0 20.79 24.78"><title>platformsAsset 33quesitons</title><path d="M18.65,16.79a1.88,1.88,0,0,1,.82.17,2.14,2.14,0,0,1,.69.46,2.33,2.33,0,0,1,.46.68,2.08,2.08,0,0,1,.17.82v5.86h-1.6V18.92a.51.51,0,0,0-.16-.38.52.52,0,0,0-.38-.15H2.14a.52.52,0,0,0-.38.15.51.51,0,0,0-.16.38v5.86H0V18.92a2.08,2.08,0,0,1,.17-.82,2.12,2.12,0,0,1,.45-.68A2,2,0,0,1,1.31,17a1.93,1.93,0,0,1,.83-.17H6.4v-1.6H5.33A2.16,2.16,0,0,1,4.5,15a2.12,2.12,0,0,1-.68-.45,2.17,2.17,0,0,1-.45-.69,1.93,1.93,0,0,1-.17-.83V12H1.6V8.79H3.2V7.73a1.91,1.91,0,0,1,.17-.82,2.12,2.12,0,0,1,.45-.68,2.18,2.18,0,0,1,.68-.47,2.15,2.15,0,0,1,.83-.16H9.59V3A1.72,1.72,0,0,1,9,2.4a1.63,1.63,0,0,1-.22-.8A1.65,1.65,0,0,1,8.92,1a1.58,1.58,0,0,1,.34-.5A1.78,1.78,0,0,1,9.77.12,1.69,1.69,0,0,1,11,.12a1.61,1.61,0,0,1,.5.35,1.61,1.61,0,0,1,.35.5A1.64,1.64,0,0,1,12,1.6a1.53,1.53,0,0,1-.22.8,1.64,1.64,0,0,1-.58.59V5.6h4.26a2.12,2.12,0,0,1,.83.16,2.43,2.43,0,0,1,.68.47,2.15,2.15,0,0,1,.46.68,2.08,2.08,0,0,1,.17.82V8.79h1.6V12h-1.6v1.06a2.09,2.09,0,0,1-.17.83,2.19,2.19,0,0,1-.46.69,2.37,2.37,0,0,1-.68.45,2.12,2.12,0,0,1-.83.17H14.39v1.6ZM4.8,13.05a.52.52,0,0,0,.15.38.51.51,0,0,0,.38.16H15.45a.55.55,0,0,0,.54-.54V7.73a.51.51,0,0,0-.16-.38.52.52,0,0,0-.38-.15H5.33a.51.51,0,0,0-.53.53ZM6.4,8.79H8v1.6H6.4Zm1.59,8h4.8v-1.6H8Zm4.8-8h1.6v1.6h-1.6Z"/></svg>