<svg xmlns="http://www.w3.org/2000/svg" viewBox="0 0 25.43 25.43"><title>platformsAsset 39quesitons</title><path d="M22.2,12.27v.22a1.77,1.77,0,0,1,0,.23,1.62,1.62,0,0,1,0,.22v.23l3.23,2-2,4.78-3.71-.85q-.3.33-.63.63L20,23.45l-4.78,2-2-3.23h-.9l-2,3.23-4.79-2,.85-3.71c-.22-.2-.42-.41-.62-.63L2,20,0,15.18l3.24-2c0-.08,0-.15,0-.23a1.62,1.62,0,0,1,0-.22,1.77,1.77,0,0,1,0-.23c0-.07,0-.15,0-.22L0,10.26,2,5.47l3.71.85c.2-.22.4-.42.62-.62L5.47,2l4.79-2,2,3.24h.9l2-3.24L20,2,19.11,5.7c.22.2.43.4.63.62l3.71-.85,2,4.79Zm-1.46,1.62c0-.2,0-.4.05-.59s0-.4,0-.6,0-.38,0-.58,0-.4-.05-.59l2.94-1.84L22.61,7.1l-3.39.78A9.51,9.51,0,0,0,18.43,7c-.27-.27-.56-.53-.88-.8l.79-3.39-2.6-1.07-1.85,3-.59,0-.58,0q-.3,0-.6,0l-.59,0L9.69,1.75,7.1,2.82l.78,3.39A11.23,11.23,0,0,0,7,7c-.27.27-.53.57-.8.88L2.82,7.1,1.75,9.69l3,1.85c0,.2,0,.4,0,.6a5.68,5.68,0,0,0,0,.59c0,.19,0,.39,0,.59s0,.39,0,.58L1.75,15.74l1.07,2.6,3.39-.79a11.42,11.42,0,0,0,.79.88c.27.26.57.53.88.79L7.1,22.61l2.59,1.07,1.85-2.94.59.05.59,0,.59,0,.59-.05,1.84,2.94,2.6-1.07-.79-3.39a9.66,9.66,0,0,0,.88-.79c.26-.27.53-.56.79-.88l3.39.79,1.07-2.6ZM12.72,8a4.5,4.5,0,0,1,1.83.37A4.62,4.62,0,0,1,17,10.89a4.71,4.71,0,0,1,0,3.66A4.65,4.65,0,0,1,14.55,17a4.71,4.71,0,0,1-3.66,0,4.62,4.62,0,0,1-2.5-2.49,4.71,4.71,0,0,1,0-3.66,4.6,4.6,0,0,1,2.5-2.5A4.5,4.5,0,0,1,12.72,8Zm0,8A3.25,3.25,0,0,0,14,15.76,3.34,3.34,0,0,0,15.76,14a3.43,3.43,0,0,0,0-2.57A3.34,3.34,0,0,0,14,9.67a3.43,3.43,0,0,0-2.57,0,3.34,3.34,0,0,0-1.76,1.76,3.43,3.43,0,0,0,0,2.57,3.34,3.34,0,0,0,1.76,1.76A3.26,3.26,0,0,0,12.72,16Z"/></svg>