<?xml version="1.0" encoding="utf-8"?>
<!-- Generator: Adobe Illustrator 23.0.2, SVG Export Plug-In . SVG Version: 6.00 Build 0)  -->
<svg version="1.1" id="Layer_1" xmlns="http://www.w3.org/2000/svg" xmlns:xlink="http://www.w3.org/1999/xlink" x="0px" y="0px"
	 viewBox="0 0 16 25.6" style="enable-background:new 0 0 16 25.6;" xml:space="preserve">
<style type="text/css">
	.st0{fill:#FFFFFF;}
</style>
<title>platformsAsset 35quesitons</title>
<path class="st0" d="M8,0c0.7,0,1.4,0.1,2.1,0.3c0.7,0.2,1.3,0.5,1.9,0.8c0.6,0.3,1.1,0.8,1.6,1.3c0.5,0.5,0.9,1.1,1.2,1.7
	c0.3,0.6,0.6,1.2,0.8,1.9C15.9,6.6,16,7.3,16,8c0,0.6-0.1,1.1-0.2,1.6c-0.1,0.5-0.3,1.1-0.6,1.6L8,25.6L0.8,11.2
	c-0.3-0.5-0.5-1-0.6-1.5C0.1,9.1,0,8.6,0,8c0-0.7,0.1-1.4,0.3-2.1C0.5,5.2,0.7,4.6,1.1,4C1.8,2.8,2.8,1.8,4,1.1
	c0.6-0.3,1.2-0.6,1.9-0.8C6.6,0.1,7.3,0,8,0z M13.9,10.6L13.9,10.6L13.9,10.6c0.2-0.4,0.4-0.8,0.5-1.2c0.1-0.4,0.2-0.9,0.2-1.3
	c0-0.9-0.2-1.8-0.5-2.6c-0.3-0.8-0.8-1.5-1.4-2.1c-0.6-0.6-1.3-1.1-2.1-1.4C9.8,1.6,8.9,1.4,8,1.4c-0.9,0-1.8,0.2-2.6,0.5
	C3.9,2.6,2.6,3.9,1.9,5.4C1.6,6.2,1.4,7.1,1.4,8c0,0.4,0.1,0.9,0.2,1.3c0.1,0.4,0.2,0.8,0.4,1.2l0,0l0,0l6,11.9L13.9,10.6z M8,3.3
	c0.6,0,1.3,0.1,1.8,0.4c1.1,0.5,2,1.4,2.5,2.5c0.5,1.2,0.5,2.5,0,3.7c-0.5,1.1-1.4,2-2.5,2.5c-1.2,0.5-2.5,0.5-3.7,0
	c-1.1-0.5-2-1.4-2.5-2.5c-0.5-1.2-0.5-2.5,0-3.7C4.1,5,5,4.1,6.2,3.7C6.7,3.4,7.4,3.3,8,3.3z M8,11.3c0.4,0,0.9-0.1,1.3-0.3
	c0.8-0.3,1.4-1,1.7-1.7c0.3-0.8,0.3-1.7,0-2.6C10.7,5.9,10,5.3,9.3,5C8.5,4.7,7.5,4.7,6.7,5C5.9,5.3,5.3,5.9,5,6.7
	C4.7,7.5,4.7,8.5,5,9.3C5.3,10,5.9,10.7,6.7,11C7.1,11.2,7.6,11.3,8,11.3L8,11.3z"/>
</svg>
