<?xml version="1.0" encoding="utf-8"?>
<!-- Generator: Adobe Illustrator 23.0.2, SVG Export Plug-In . SVG Version: 6.00 Build 0)  -->
<svg version="1.1" id="Layer_1" xmlns="http://www.w3.org/2000/svg" xmlns:xlink="http://www.w3.org/1999/xlink" x="0px" y="0px"
	 viewBox="0 0 22.4 25.6" style="enable-background:new 0 0 22.4 25.6;" xml:space="preserve">
<style type="text/css">
	.st0{fill:#FFFFFF;}
</style>
<title>platformsAsset 29quesitons</title>
<path class="st0" d="M15,15c2.2,0.7,4.1,2.2,5.4,4.1c0.6,0.9,1.1,1.9,1.5,3c0.3,1.1,0.5,2.3,0.5,3.4h-1.6c0-1.3-0.2-2.6-0.7-3.8
	c-0.5-1.1-1.1-2.1-2-3c-0.9-0.9-1.9-1.5-3-2c-1.2-0.5-2.5-0.7-3.9-0.7c-0.9,0-1.7,0.1-2.6,0.3c-0.8,0.2-1.6,0.6-2.3,1
	c-1.4,0.8-2.6,2-3.4,3.4c-0.4,0.7-0.8,1.5-1,2.3c-0.2,0.8-0.3,1.7-0.3,2.6H0c0-2.3,0.7-4.6,2-6.5c0.7-0.9,1.4-1.7,2.3-2.4
	c0.9-0.7,2-1.3,3.1-1.7c-0.6-0.3-1.2-0.8-1.8-1.3c-0.5-0.5-1-1-1.3-1.6c-0.4-0.6-0.6-1.3-0.8-2C3.3,9.4,3.2,8.7,3.2,8
	c0-1.1,0.2-2.1,0.6-3.1C4.6,3,6.2,1.4,8.1,0.6c3-1.3,6.5-0.6,8.8,1.7c1.5,1.5,2.3,3.5,2.3,5.7c0,0.7-0.1,1.4-0.3,2.1
	c-0.2,0.7-0.5,1.3-0.8,1.9c-0.4,0.6-0.8,1.2-1.3,1.7C16.2,14.3,15.6,14.7,15,15z M4.8,8c0,0.9,0.2,1.7,0.5,2.5
	c0.3,0.7,0.8,1.4,1.4,2c0.6,0.6,1.3,1,2,1.4c0.8,0.3,1.6,0.5,2.5,0.5c0.9,0,1.7-0.2,2.5-0.5c0.7-0.3,1.4-0.8,2-1.4
	c0.6-0.6,1-1.3,1.4-2c0.4-0.8,0.6-1.6,0.6-2.5c0-0.9-0.2-1.7-0.5-2.5c-0.3-0.7-0.8-1.4-1.4-2c-0.6-0.6-1.3-1-2-1.4
	c-0.8-0.3-1.6-0.5-2.5-0.5c-0.9,0-1.7,0.2-2.5,0.5C7.2,2.8,6,4,5.3,5.5C5,6.3,4.8,7.1,4.8,8z"/>
</svg>
