<?xml version="1.0" encoding="utf-8"?>
<!-- Generator: Adobe Illustrator 23.0.2, SVG Export Plug-In . SVG Version: 6.00 Build 0)  -->
<svg version="1.1" id="Layer_1" xmlns="http://www.w3.org/2000/svg" xmlns:xlink="http://www.w3.org/1999/xlink" x="0px" y="0px"
	 viewBox="0 0 25.4 19.3" style="enable-background:new 0 0 25.4 19.3;" xml:space="preserve">
<style type="text/css">
	.st0{fill:#FFFFFF;}
</style>
<title>platformsAsset 36quesitons</title>
<path class="st0" d="M2.2,2.6L4.8,0l1.1,1.1L2.2,4.9L0,2.7l1.1-1.1L2.2,2.6z M2.2,7.4l2.6-2.6l1.1,1.1L2.2,9.7L0,7.5l1.1-1.1
	L2.2,7.4z M2.2,12.2l2.6-2.6l1.1,1.1l-3.8,3.8L0,12.3l1.1-1.1L2.2,12.2z M2.2,17l2.6-2.6l1.1,1.1l-3.8,3.8L0,17.1L1.1,16L2.2,17z
	 M7.8,1.6h17.6v1.6H7.8V1.6z M7.8,8V6.4h17.6V8L7.8,8z M7.8,12.8v-1.6h17.6v1.6H7.8z M7.8,17.5V16h17.6v1.6L7.8,17.5z"/>
</svg>
