<svg xmlns="http://www.w3.org/2000/svg" viewBox="0 0 20.79 23.21"><title>platformsAsset 38quesitons</title><path d="M20.79,16.81a2.57,2.57,0,0,1-.37,1.37,3.36,3.36,0,0,1-1,1,4.53,4.53,0,0,1-1.29.62,4.71,4.71,0,0,1-2.78,0,4.53,4.53,0,0,1-1.29-.62,3.36,3.36,0,0,1-.95-1,2.49,2.49,0,0,1-.37-1.37,2.53,2.53,0,0,1,.37-1.36,3.36,3.36,0,0,1,.95-1,4.53,4.53,0,0,1,1.29-.62,4.94,4.94,0,0,1,1.39-.21,5.28,5.28,0,0,1,1.25.15,4.66,4.66,0,0,1,1.15.48V2.05L8,4.85V20a2.59,2.59,0,0,1-.36,1.37,3.62,3.62,0,0,1-1,1,4.73,4.73,0,0,1-1.3.62A4.82,4.82,0,0,1,4,23.21,4.94,4.94,0,0,1,2.61,23a4.81,4.81,0,0,1-1.29-.62,3.35,3.35,0,0,1-.95-1,2.7,2.7,0,0,1,0-2.73,3.27,3.27,0,0,1,1-1A4.5,4.5,0,0,1,2.61,17,4.62,4.62,0,0,1,4,16.81,5.29,5.29,0,0,1,5.25,17a4.13,4.13,0,0,1,1.15.48V3.6L20.79,0ZM4,21.61a3.1,3.1,0,0,0,.75-.1,3.66,3.66,0,0,0,.78-.29,2.17,2.17,0,0,0,.62-.5A1.1,1.1,0,0,0,6.4,20a1.12,1.12,0,0,0-.25-.71,2.14,2.14,0,0,0-.62-.49,3.7,3.7,0,0,0-.78-.3,3.7,3.7,0,0,0-.75-.1,3.52,3.52,0,0,0-.75.1,3.32,3.32,0,0,0-.78.3,2,2,0,0,0-.62.49A1.06,1.06,0,0,0,1.6,20a1,1,0,0,0,.25.71,2,2,0,0,0,.62.5,3.3,3.3,0,0,0,.78.29A3,3,0,0,0,4,21.61Zm12.79-3.2a3.1,3.1,0,0,0,.75-.1,3.19,3.19,0,0,0,.78-.29,2.14,2.14,0,0,0,.62-.49,1.15,1.15,0,0,0,0-1.43,2.14,2.14,0,0,0-.62-.49,3.4,3.4,0,0,0-1.53-.4,3.52,3.52,0,0,0-.75.1,3.32,3.32,0,0,0-.78.3,2,2,0,0,0-.62.49,1.15,1.15,0,0,0,0,1.43,2,2,0,0,0,.62.49,2.92,2.92,0,0,0,.78.29A3,3,0,0,0,16.79,18.41Z"/></svg>