<?xml version="1.0" encoding="utf-8"?>
<!-- Generator: Adobe Illustrator 23.0.2, SVG Export Plug-In . SVG Version: 6.00 Build 0)  -->
<svg version="1.1" id="Layer_1" xmlns="http://www.w3.org/2000/svg" xmlns:xlink="http://www.w3.org/1999/xlink" x="0px" y="0px"
	 viewBox="0 0 25.6 20.8" style="enable-background:new 0 0 25.6 20.8;" xml:space="preserve">
<style type="text/css">
	.st0{fill:#FFFFFF;}
</style>
<title>platformsAsset 37quesitons</title>
<path class="st0" d="M17.6,3.2h8v17.6H8v-3.2H0V0h17.6V3.2z M1.6,1.6v1.6H16V1.6H1.6z M1.6,16H16V4.8H1.6L1.6,16z M14.4,6.4V8H3.2
	V6.4H14.4z M14.4,9.6v1.6H3.2V9.6H14.4z M14.4,12.8v1.6H3.2v-1.6H14.4z M24,19.2V8h-6.4v1.6h4.8v1.6h-4.8v1.6h4.8v1.6h-4.8V16h4.8
	v1.6H9.6v1.6L24,19.2z M24,6.4V4.8h-6.4v1.6H24z"/>
</svg>
