<svg xmlns="http://www.w3.org/2000/svg" viewBox="0 0 22.38 25.58"><title>platformsAsset 29quesitons</title><path d="M15,15a10.75,10.75,0,0,1,5.39,4.08,11.11,11.11,0,0,1,1.47,3,11.53,11.53,0,0,1,.51,3.43H20.79a9.93,9.93,0,0,0-.73-3.8,9.24,9.24,0,0,0-2-3,9.35,9.35,0,0,0-3-2A9.76,9.76,0,0,0,11.19,16a9.49,9.49,0,0,0-2.57.34,9.6,9.6,0,0,0-2.31,1A9.55,9.55,0,0,0,2.89,20.7a9.77,9.77,0,0,0-1,2.31,9.49,9.49,0,0,0-.34,2.57H0a11.15,11.15,0,0,1,2-6.46A11.12,11.12,0,0,1,4.34,16.7,11.29,11.29,0,0,1,7.4,15a7.69,7.69,0,0,1-1.75-1.27A7.83,7.83,0,0,1,4.33,12.1a8.52,8.52,0,0,1-.84-2A8.14,8.14,0,0,1,3.2,8a7.92,7.92,0,0,1,.62-3.11A8,8,0,0,1,8.08.62a8,8,0,0,1,8.77,1.72A8,8,0,0,1,19.19,8a7.63,7.63,0,0,1-.3,2.14,8,8,0,0,1-.83,1.95,8.44,8.44,0,0,1-1.32,1.67A7.61,7.61,0,0,1,15,15ZM4.8,8a6.26,6.26,0,0,0,.5,2.49,6.64,6.64,0,0,0,1.38,2,6.32,6.32,0,0,0,2,1.37,6.08,6.08,0,0,0,2.48.51,6.16,6.16,0,0,0,2.49-.51,6.44,6.44,0,0,0,2-1.37,6.61,6.61,0,0,0,1.37-2A6.09,6.09,0,0,0,17.59,8a6.08,6.08,0,0,0-.51-2.48,6.49,6.49,0,0,0-1.37-2,6.64,6.64,0,0,0-2-1.38,6.33,6.33,0,0,0-2.49-.5,6.24,6.24,0,0,0-2.48.5A6.55,6.55,0,0,0,5.3,5.51,6.24,6.24,0,0,0,4.8,8Z"/></svg>