<svg xmlns="http://www.w3.org/2000/svg" xmlns:xlink="http://www.w3.org/1999/xlink" viewBox="0 0 505.74 429.64"><defs><style>.a{fill:none;}.b{fill:#5bafe2;}.c{clip-path:url(#a);}.d{fill:#328bd8;opacity:0.7;}.e{fill:#0058a8;}.e,.f{opacity:0.25;}.f{fill:#b6dcf1;}.g{opacity:0.2;fill:url(#b);}.h{clip-path:url(#c);}.i{fill:#045384;}.j,.l{opacity:0.4;}.j{fill:url(#d);}.k{fill:#0078d0;opacity:0.46;}.l{fill:url(#e);}.m{fill:#fff;opacity:0.5;}</style><clipPath id="a"><rect class="a" x="0.78" y="125.65" width="308.26" height="135.23"/></clipPath><linearGradient id="b" x1="171.14" y1="275.43" x2="391.61" y2="275.43" gradientTransform="translate(277.17 -118.29) rotate(45)" gradientUnits="userSpaceOnUse"><stop offset="0" stop-color="#fff" stop-opacity="0.5"/><stop offset="1" stop-color="#fff"/></linearGradient><clipPath id="c"><rect class="a" x="10.07" y="161.38" width="123.3" height="99.5"/></clipPath><linearGradient id="d" x1="72.7" y1="193.88" x2="106.61" y2="193.88" gradientTransform="matrix(1, 0, 0, 1, 0, 0)" xlink:href="#b"/><linearGradient id="e" x1="72.7" y1="250.19" x2="115.09" y2="250.19" gradientTransform="matrix(1, 0, 0, 1, 0, 0)" xlink:href="#b"/></defs><title>platformsAsset 96</title><rect class="b" y="125.65" width="309.04" height="135.23"/><g class="c"><rect class="d" x="315.68" y="121.36" width="159.66" height="159.66" rx="6.4" transform="translate(-26.42 338.59) rotate(-45)"/><rect class="e" x="173.14" y="30.41" width="159.66" height="159.66" rx="6.4" transform="translate(-3.85 211.17) rotate(-45)"/><rect class="f" x="198.66" y="239.58" width="159.66" height="159.66" rx="6.4" transform="translate(-144.29 290.47) rotate(-45)"/><rect class="g" x="201.54" y="195.6" width="159.66" height="159.66" rx="6.4" transform="translate(-112.34 279.63) rotate(-45)"/></g><g class="h"><path class="i" d="M122,186.84a4.37,4.37,0,0,0-4.32,2.8h-2.59v-5c0-1.07-.56-1.56-1.63-1.56h-2.14V180.2a8.28,8.28,0,0,0-8.54-8.48H41.37c-4.89,0-9.17,3.59-9.17,8.48V183H30.69c-1.07,0-2.26.49-2.26,1.56v6H25.79a4.37,4.37,0,0,0-4.32-2.8,4.75,4.75,0,0,0-4.71,4.75,4.69,4.69,0,0,0,4.71,4.69,4.43,4.43,0,0,0,4.32-2.87h2.64v5.21a2.6,2.6,0,0,0,2.26,2.33H32.2v4a9.47,9.47,0,0,0,9.17,9.24h61.41c4.89,0,8.54-4.35,8.54-9.24v-4h2.14c1.07,0,1.63-1.25,1.63-2.33v-6.15h2.59a4.44,4.44,0,0,0,4.32,2.87,4.72,4.72,0,0,0,0-9.44Zm-15.39,19.38c0,2.09-1.37,4.16-3.45,4.16H41a4.39,4.39,0,0,1-4.08-4.16V180.77c0-2.09,2-3.39,4.08-3.39h62.17a3.2,3.2,0,0,1,3.45,3.39Z"/><path class="j" d="M103.16,177.38H72.7v33h30.46c2.08,0,3.45-2.07,3.45-4.16V180.77A3.2,3.2,0,0,0,103.16,177.38Z"/><path class="k" d="M41,177.38c-2.1,0-4.11,1.32-4.11,3.42v25.39A4.42,4.42,0,0,0,41,210.38H72.7v-33Z"/><path class="i" d="M97,193.52l-6.37-5a2,2,0,0,0-2.46,0l-6.18,5a2,2,0,0,0-.28,2.77A2,2,0,0,0,83,197h.2a1.94,1.94,0,0,0,1.24-.44l5-4,5.15,4.06a2,2,0,0,0,2.75-.33,2,2,0,0,0-.33-2.76Z"/><path class="i" d="M62.47,196.28a2,2,0,0,1-2.76.33l-5.14-4.06-5,4a2,2,0,0,1-1.24.44h-.2a2,2,0,0,1-1-3.48l6.18-5a1.94,1.94,0,0,1,2.45,0l6.38,5a2,2,0,0,1,.74,1.32A2,2,0,0,1,62.47,196.28Z"/><path class="a" d="M72.65,224.81v50.77h0V224.81Z"/><polygon class="a" points="115.09 247.71 115.09 228.58 115.09 228.58 115.09 247.72 115.09 247.71"/><path class="l" d="M115.09,247.72V228.58a3.77,3.77,0,0,0-3.77-3.77H72.7v50.77C81.68,275.58,115.09,272.78,115.09,247.72Z"/><path class="k" d="M34.08,224.81a3.76,3.76,0,0,0-3.76,3.77v19.13c0,25,33.27,27.86,42.33,27.87V224.81Z"/><path class="i" d="M113.31,220.09H32.09c-3.58,0-6.48,2.44-6.48,6v21.59c0,26.87,31.6,32.27,46.84,32,15.53-.23,47.21-5.44,47.35-31.87V226.12C119.8,222.53,116.89,220.09,113.31,220.09ZM72.7,275.58c-9,0-42.38-2.8-42.38-27.87V228.58a3.76,3.76,0,0,1,3.76-3.77h77.24a3.77,3.77,0,0,1,3.77,3.77v19.13C115.09,272.78,81.68,275.58,72.7,275.58Z"/><line class="i" x1="111.33" y1="263.73" x2="93.97" y2="263.73"/><path class="i" d="M111.33,265.22H94a1.49,1.49,0,0,1,0-3h17.36a1.49,1.49,0,0,1,0,3Z"/><line class="i" x1="103.29" y1="269.98" x2="85.57" y2="269.98"/><path class="i" d="M103.29,271.47H85.57a1.49,1.49,0,0,1,0-3h17.72a1.49,1.49,0,0,1,0,3Z"/><line class="i" x1="33.31" y1="263.73" x2="50.37" y2="263.73"/><path class="i" d="M50.37,265.22H33.31a1.49,1.49,0,1,1,0-3H50.37a1.49,1.49,0,0,1,0,3Z"/><line class="i" x1="40.81" y1="269.98" x2="58.77" y2="269.98"/><path class="i" d="M58.77,271.47h-18a1.49,1.49,0,1,1,0-3h18a1.49,1.49,0,0,1,0,3Z"/><path class="m" d="M69.68,236.25a6.07,6.07,0,0,0-6.59,1.31,6.71,6.71,0,0,0-1,1.29,5.85,5.85,0,0,0-.58,1.46,6,6,0,0,0,0,3.08,5.79,5.79,0,0,0,.58,1.45,6.42,6.42,0,0,0,1,1.29L72,255l.72.72.72-.72,8.9-8.89a6,6,0,0,0,1-1.29,6.23,6.23,0,0,0,.59-1.45,6.34,6.34,0,0,0,0-3.08,6,6,0,0,0-1.57-2.75,6.12,6.12,0,0,0-2-1.31,6.07,6.07,0,0,0-6.59,1.31l-1.06,1.07-1-1.07A6.12,6.12,0,0,0,69.68,236.25Z"/></g></svg>