<svg xmlns="http://www.w3.org/2000/svg" xmlns:xlink="http://www.w3.org/1999/xlink" viewBox="0 0 400.44 352.17"><defs><style>.a{fill:none;}.b{fill:#5bafe2;}.c{opacity:0.7;}.d{clip-path:url(#a);}.e{fill:#0058a8;}.e,.g{opacity:0.25;}.f{opacity:0.2;fill:url(#b);}.g{fill:#b6dcf1;}.h{clip-path:url(#c);}.i{fill:#045384;}.j,.l{opacity:0.4;}.j{fill:url(#d);}.k{fill:#0078d0;opacity:0.46;}.l{fill:url(#e);}.m{fill:#fff;opacity:0.5;}</style><clipPath id="a" transform="translate(-61.06)"><rect class="a" y="158.89" width="309.05" height="309.05"/></clipPath><linearGradient id="b" x1="241.03" y1="240.19" x2="461.5" y2="240.19" gradientTransform="translate(272.73 -178.03) rotate(45)" gradientUnits="userSpaceOnUse"><stop offset="0" stop-color="#fff" stop-opacity="0.5"/><stop offset="1" stop-color="#fff"/></linearGradient><clipPath id="c" transform="translate(-61.06)"><rect class="a" x="72.5" y="251.36" width="105" height="84.73"/></clipPath><linearGradient id="d" x1="125.83" y1="279.04" x2="154.71" y2="279.04" gradientTransform="matrix(1, 0, 0, 1, 0, 0)" xlink:href="#b"/><linearGradient id="e" x1="125.83" y1="326.99" x2="161.93" y2="326.99" gradientTransform="matrix(1, 0, 0, 1, 0, 0)" xlink:href="#b"/></defs><title>platformsAsset 95</title><rect class="b" y="158.89" width="248" height="177.19"/><g class="c"><g class="d"><rect class="e" x="162.65" y="30.41" width="159.66" height="159.66" rx="6.4" transform="translate(-67.98 203.75) rotate(-45)"/><rect class="f" x="271.43" y="160.36" width="159.66" height="159.66" rx="6.4" transform="translate(-128.02 318.73) rotate(-45)"/><rect class="g" x="254.85" y="101.08" width="159.66" height="159.66" rx="6.4" transform="translate(-90.95 289.64) rotate(-45)"/></g></g><g class="h"><path class="i" d="M167.81,273a3.72,3.72,0,0,0-3.67,2.38h-2.21v-4.29c0-.91-.48-1.33-1.39-1.33h-1.82v-2.41a7,7,0,0,0-7.27-7.22H99.15c-4.17,0-7.81,3.05-7.81,7.22v2.41H90.06c-.92,0-1.93.42-1.93,1.33v5.1H85.88a3.7,3.7,0,0,0-3.67-2.38,4,4,0,0,0,0,8,3.77,3.77,0,0,0,3.67-2.44h2.25v4.43a2.21,2.21,0,0,0,1.93,2h1.28v3.37a8.06,8.06,0,0,0,7.81,7.87h52.3c4.16,0,7.27-3.71,7.27-7.87v-3.37h1.82c.91,0,1.39-1.07,1.39-2v-5.24h2.21a3.76,3.76,0,0,0,3.67,2.45,4,4,0,0,0,4-4A4,4,0,0,0,167.81,273Zm-13.1,16.51c0,1.77-1.17,3.54-2.94,3.54H98.83a3.75,3.75,0,0,1-3.48-3.54V267.87c0-1.77,1.71-2.88,3.48-2.88h52.94a2.72,2.72,0,0,1,2.94,2.88Z" transform="translate(-61.06)"/><path class="j" d="M151.77,265H125.83v28.1h25.94c1.77,0,2.94-1.77,2.94-3.54V267.87A2.72,2.72,0,0,0,151.77,265Z" transform="translate(-61.06)"/><path class="k" d="M98.86,265c-1.79,0-3.51,1.12-3.51,2.91v21.62a3.78,3.78,0,0,0,3.51,3.57h27V265Z" transform="translate(-61.06)"/><path class="i" d="M146.52,278.73l-5.43-4.28a1.66,1.66,0,0,0-2.09,0l-5.27,4.28a1.68,1.68,0,0,0-.24,2.35,1.66,1.66,0,0,0,1.13.61h.17a1.63,1.63,0,0,0,1.05-.38l4.23-3.43,4.38,3.45a1.72,1.72,0,0,0,2.35-.28,1.65,1.65,0,0,0,.34-1.23A1.67,1.67,0,0,0,146.52,278.73Z" transform="translate(-61.06)"/><path class="i" d="M117.12,281.08a1.72,1.72,0,0,1-2.35.28l-4.38-3.45-4.23,3.43a1.61,1.61,0,0,1-1,.38h-.17a1.67,1.67,0,0,1-.88-3l5.26-4.28a1.66,1.66,0,0,1,2.09,0l5.43,4.28a1.67,1.67,0,0,1,.62,1.12A1.65,1.65,0,0,1,117.12,281.08Z" transform="translate(-61.06)"/><path class="a" d="M125.79,305.37v43.24h0V305.37Z" transform="translate(-61.06)"/><polygon class="a" points="100.87 324.88 100.87 308.58 100.87 308.58 100.87 324.88 100.87 324.88"/><path class="l" d="M161.93,324.88v-16.3a3.21,3.21,0,0,0-3.21-3.21H125.83v43.24C133.48,348.61,161.93,346.22,161.93,324.88Z" transform="translate(-61.06)"/><path class="k" d="M93,305.37a3.21,3.21,0,0,0-3.21,3.21v16.3c0,21.3,28.34,23.72,36.05,23.73V305.37Z" transform="translate(-61.06)"/><path class="i" d="M160.41,301.36H91.25c-3,0-5.52,2.07-5.52,5.13v18.39c0,22.88,26.91,27.47,39.88,27.28,13.23-.19,40.21-4.63,40.33-27.14V306.49C165.94,303.43,163.46,301.36,160.41,301.36Zm-34.58,47.25c-7.64,0-36.09-2.39-36.09-23.73v-16.3A3.21,3.21,0,0,1,93,305.37h65.77a3.21,3.21,0,0,1,3.21,3.21v16.3C161.93,346.22,133.48,348.61,125.83,348.61Z" transform="translate(-61.06)"/><line class="i" x1="97.67" y1="338.52" x2="82.89" y2="338.52"/><path class="i" d="M158.72,339.79H144a1.27,1.27,0,0,1,0-2.54h14.77a1.27,1.27,0,1,1,0,2.54Z" transform="translate(-61.06)"/><line class="i" x1="90.83" y1="343.84" x2="75.74" y2="343.84"/><path class="i" d="M151.88,345.11H136.79a1.27,1.27,0,0,1,0-2.54h15.09a1.27,1.27,0,1,1,0,2.54Z" transform="translate(-61.06)"/><line class="i" x1="31.23" y1="338.52" x2="45.76" y2="338.52"/><path class="i" d="M106.81,339.79H92.29a1.27,1.27,0,1,1,0-2.54h14.52a1.27,1.27,0,1,1,0,2.54Z" transform="translate(-61.06)"/><line class="i" x1="37.62" y1="343.84" x2="52.91" y2="343.84"/><path class="i" d="M114,345.11H98.67a1.27,1.27,0,0,1,0-2.54H114a1.27,1.27,0,0,1,0,2.54Z" transform="translate(-61.06)"/><path class="m" d="M123.26,315.12a5.17,5.17,0,0,0-3.94,0,5.46,5.46,0,0,0-1.68,1.11,5.39,5.39,0,0,0-.83,1.1,4.89,4.89,0,0,0-.5,1.24,5.31,5.31,0,0,0-.17,1.32,5.15,5.15,0,0,0,.17,1.3,4.89,4.89,0,0,0,.5,1.24,5.13,5.13,0,0,0,.83,1.1l7.58,7.57.61.61.61-.61,7.58-7.57a5.53,5.53,0,0,0,.84-1.1,5.28,5.28,0,0,0,.5-1.24,5.14,5.14,0,0,0,.16-1.3,5.09,5.09,0,0,0-.66-2.56,5.83,5.83,0,0,0-.84-1.1,5.23,5.23,0,0,0-1.68-1.11,5.15,5.15,0,0,0-3.93,0,5.23,5.23,0,0,0-1.68,1.11l-.9.91-.9-.91A5.3,5.3,0,0,0,123.26,315.12Z" transform="translate(-61.06)"/></g></svg>