<svg xmlns="http://www.w3.org/2000/svg" viewBox="0 0 48 48"><defs><style>.a{fill:#fff;}</style></defs><title>weathericons</title><path class="a" d="M25,27.3a3.56,3.56,0,0,1,.69,1.11A3.25,3.25,0,0,1,24.91,32a3.5,3.5,0,0,1-1.1.7,3.43,3.43,0,0,1-2.62,0,3.5,3.5,0,0,1-1.1-.7A3.26,3.26,0,0,1,19.34,31a3.27,3.27,0,0,1,0-2.58A3.56,3.56,0,0,1,20,27.3V19.5a2.44,2.44,0,0,1,.2-1,2.39,2.39,0,0,1,.53-.79,2.48,2.48,0,0,1,2.74-.54,2.59,2.59,0,0,1,1.33,1.33,2.44,2.44,0,0,1,.2,1ZM22.5,32a2.49,2.49,0,0,0,1.7-.67,2.31,2.31,0,0,0,.54-.74,2.25,2.25,0,0,0,.2-.93,2.29,2.29,0,0,0-.26-1.07,3.2,3.2,0,0,0-.68-.88V19.5a1.48,1.48,0,0,0-.12-.59,1.52,1.52,0,0,0-.79-.79,1.51,1.51,0,0,0-1.18,0,1.52,1.52,0,0,0-.79.79,1.48,1.48,0,0,0-.12.59v8.21a3.2,3.2,0,0,0-.68.88,2.29,2.29,0,0,0-.26,1.07,2.25,2.25,0,0,0,.2.93,2.31,2.31,0,0,0,.54.74,2.49,2.49,0,0,0,1.7.67v0Zm.5-3.91a1.44,1.44,0,0,1,.41.21,2,2,0,0,1,.32.33,1.56,1.56,0,0,1,.2.41,1.43,1.43,0,0,1,.07.46,1.48,1.48,0,0,1-.12.59,1.52,1.52,0,0,1-.79.79,1.51,1.51,0,0,1-1.18,0,1.52,1.52,0,0,1-.79-.79A1.48,1.48,0,0,1,21,29.5a1.43,1.43,0,0,1,.07-.46,1.56,1.56,0,0,1,.2-.41,2,2,0,0,1,.32-.33,1.44,1.44,0,0,1,.41-.21V25h1Z"/></svg>