<svg xmlns="http://www.w3.org/2000/svg" viewBox="0 0 48 48"><defs><style>.a{fill:#fff;}</style></defs><title>weathericons</title><path class="a" d="M29.7,21.12a3.4,3.4,0,0,1-1,2.39,3.49,3.49,0,0,1-1.08.73,3.4,3.4,0,0,1-1.31.26H16.2V23.38H26.32a2.2,2.2,0,0,0,.88-.18A2.29,2.29,0,0,0,28.4,22a2.34,2.34,0,0,0,0-1.75,2.29,2.29,0,0,0-1.2-1.2,2.19,2.19,0,0,0-.88-.17,2.11,2.11,0,0,0-.87.17,2.39,2.39,0,0,0-.72.48,2.33,2.33,0,0,0-.48.72,2.12,2.12,0,0,0-.18.87H23a3.18,3.18,0,0,1,.26-1.3,3.49,3.49,0,0,1,.73-1.08,3.29,3.29,0,0,1,2.38-1,3.4,3.4,0,0,1,1.31.26,3.49,3.49,0,0,1,1.08.73,3.3,3.3,0,0,1,.72,1.08A3.19,3.19,0,0,1,29.7,21.12ZM32,23.38a2.11,2.11,0,0,1,.87.17,2.21,2.21,0,0,1,1.2,1.2,2.22,2.22,0,0,1,0,1.75,2.21,2.21,0,0,1-1.2,1.2,2.12,2.12,0,0,1-.87.18H30.52a2.13,2.13,0,0,1,.3,1.12,2.38,2.38,0,0,1-.17.88,2.2,2.2,0,0,1-.49.71,2,2,0,0,1-.71.48,2.2,2.2,0,0,1-.88.18,2.12,2.12,0,0,1-.87-.18,2.07,2.07,0,0,1-.72-.48,2.17,2.17,0,0,1-.48-.71,2.2,2.2,0,0,1-.18-.88h1.13a1.32,1.32,0,0,0,.08.44,1.07,1.07,0,0,0,.25.35,1,1,0,0,0,.36.25,1,1,0,0,0,.43.08A1.11,1.11,0,0,0,29,30a1.23,1.23,0,0,0,.36-.25,1.21,1.21,0,0,0,.24-.35A1.12,1.12,0,0,0,29.7,29a1.08,1.08,0,0,0-.09-.44,1.21,1.21,0,0,0-.24-.35A1.11,1.11,0,0,0,29,28a1,1,0,0,0-.44-.08H16.2V26.75H32a1.07,1.07,0,0,0,.43-.09,1.1,1.1,0,0,0,.6-.6,1.08,1.08,0,0,0,.09-.44,1,1,0,0,0-.09-.43,1.13,1.13,0,0,0-.24-.36,1.21,1.21,0,0,0-.35-.24A1.12,1.12,0,0,0,32,24.5a1,1,0,0,0-.44.09,1.1,1.1,0,0,0-.6.6,1,1,0,0,0-.09.43H29.7a2.11,2.11,0,0,1,.17-.87,2.29,2.29,0,0,1,1.2-1.2A2.16,2.16,0,0,1,32,23.38Zm-14.4-3.1a.57.57,0,0,1-.4-.16.54.54,0,0,1-.16-.4.52.52,0,0,1,.28-.48l.61-.36-.61-.37A.52.52,0,0,1,17,18a.55.55,0,0,1,.56-.56.48.48,0,0,1,.23.05l.24.11.23.14.2.13c0-.11,0-.24,0-.39a1.39,1.39,0,0,1,0-.41.72.72,0,0,1,.16-.34.5.5,0,0,1,.39-.14.49.49,0,0,1,.38.14.72.72,0,0,1,.16.34,1.39,1.39,0,0,1,0,.41c0,.15,0,.28,0,.39l.2-.13.23-.14.23-.11a.52.52,0,0,1,.24-.05.57.57,0,0,1,.4.16A.54.54,0,0,1,21,18a.51.51,0,0,1-.08.28.58.58,0,0,1-.21.2l-.62.37.62.36a.58.58,0,0,1,.21.2.51.51,0,0,1,.08.28.58.58,0,0,1-.57.56.5.5,0,0,1-.23-.05,1.34,1.34,0,0,1-.24-.12L19.77,20l-.2-.12c0,.11,0,.24,0,.39a1.39,1.39,0,0,1,0,.41.72.72,0,0,1-.16.34.49.49,0,0,1-.38.13.5.5,0,0,1-.39-.13.72.72,0,0,1-.16-.34,1.39,1.39,0,0,1,0-.41c0-.15,0-.28,0-.39l-.2.12-.23.14a1.34,1.34,0,0,1-.24.12A.5.5,0,0,1,17.55,20.28Zm6.57,11.33a.53.53,0,0,1,.29.48.58.58,0,0,1-.57.57.74.74,0,0,1-.23,0l-.24-.12-.23-.14L23,32.23c0,.11,0,.24,0,.38a1.87,1.87,0,0,1,0,.42.63.63,0,0,1-.15.33.47.47,0,0,1-.39.14.46.46,0,0,1-.38-.14.74.74,0,0,1-.17-.33,1.91,1.91,0,0,1,0-.42c0-.14,0-.27,0-.38l-.2.12-.22.14a1.15,1.15,0,0,1-.25.12.64.64,0,0,1-.23,0,.54.54,0,0,1-.39-.17.55.55,0,0,1,.11-.88l.62-.36-.62-.36a.54.54,0,0,1-.28-.48.58.58,0,0,1,.16-.4.56.56,0,0,1,.4-.17.69.69,0,0,1,.24.05,1.34,1.34,0,0,1,.24.12l.22.14.2.12c0-.11,0-.24,0-.38a1.91,1.91,0,0,1,0-.42.74.74,0,0,1,.17-.33.46.46,0,0,1,.38-.14.47.47,0,0,1,.39.14.63.63,0,0,1,.15.33,1.87,1.87,0,0,1,0,.42c0,.14,0,.27,0,.38l.19-.12.23-.14a1.34,1.34,0,0,1,.24-.12.68.68,0,0,1,.23-.05.58.58,0,0,1,.57.57.53.53,0,0,1-.29.48l-.61.36Z"/></svg>