<svg xmlns="http://www.w3.org/2000/svg" viewBox="0 0 48 48"><defs><style>.a{fill:#fff;}</style></defs><title>weathericons</title><path class="a" d="M17.45,22.38H15.2V21.25h2.25Zm13.22,1.23a3.33,3.33,0,0,1,1,.47,3.24,3.24,0,0,1,.79.73,3.19,3.19,0,0,1,.52,1,3.4,3.4,0,0,1,.19,1.11,3.4,3.4,0,0,1-1,2.38,3.49,3.49,0,0,1-1.08.73,3.4,3.4,0,0,1-1.31.26H20.26a3.78,3.78,0,0,1-1.54-.31,3.93,3.93,0,0,1-1.25-.84,4.1,4.1,0,0,1-.84-1.25,3.78,3.78,0,0,1-.31-1.54,4,4,0,0,1,.17-1.13,4.29,4.29,0,0,1,.47-1,4,4,0,0,1,.75-.85,3.58,3.58,0,0,1,1-.6,3.82,3.82,0,0,1-.11-.9,3.77,3.77,0,0,1,.31-1.53A3.87,3.87,0,0,1,19.72,19,4.13,4.13,0,0,1,21,18.18a4,4,0,0,1,1.54-.3,3.75,3.75,0,0,1,2.1.61,4,4,0,0,1,1.44,1.63,4.89,4.89,0,0,1,1.52.3A5.07,5.07,0,0,1,30,22.23,4.7,4.7,0,0,1,30.67,23.61Zm-12.14-5L16.94,17l.8-.8,1.59,1.59ZM29.82,29.12A2.19,2.19,0,0,0,30.7,29a2.29,2.29,0,0,0,1.2-1.2,2.29,2.29,0,0,0,.17-.87,2.19,2.19,0,0,0-.18-.9,2,2,0,0,0-.5-.71,2.23,2.23,0,0,0-.73-.47,2.26,2.26,0,0,0-.9-.18,3.93,3.93,0,0,0-.45-1.34,3.85,3.85,0,0,0-2-1.78,3.82,3.82,0,0,0-1.4-.25,3.63,3.63,0,0,0-1.28.22,4.19,4.19,0,0,0-1.12.61,3.65,3.65,0,0,0-.86.93,3.92,3.92,0,0,0-.53,1.18,3,3,0,0,0-.86-.51,2.65,2.65,0,0,0-1-.18,2.74,2.74,0,0,0-1.1.22,2.91,2.91,0,0,0-.89.6,2.73,2.73,0,0,0-.6.9,2.69,2.69,0,0,0-.22,1.09,2.74,2.74,0,0,0,.22,1.1,2.59,2.59,0,0,0,.6.89,2.77,2.77,0,0,0,.89.61,2.91,2.91,0,0,0,1.1.21ZM22.51,19a2.74,2.74,0,0,0-1.1.22,2.93,2.93,0,0,0-.89.61,2.79,2.79,0,0,0-.82,2c0,.1,0,.2,0,.3a1.67,1.67,0,0,0,.06.29,3.93,3.93,0,0,1,.49,0,3.67,3.67,0,0,1,.66.05,3.42,3.42,0,0,1,.63.16,4.78,4.78,0,0,1,.61-.83,5.59,5.59,0,0,1,.78-.68,5,5,0,0,1,.9-.52,5.1,5.1,0,0,1,1-.32A2.78,2.78,0,0,0,22.51,19Zm.56-2.25H22V14.5h1.12Zm3.42,1.88-.8-.8,1.59-1.59.8.8Z"/></svg>