<svg xmlns="http://www.w3.org/2000/svg" viewBox="0 0 48 48"><defs><style>.a{fill:#fff;}</style></defs><title>weathericons</title><path class="a" d="M30.76,23.09a3.07,3.07,0,0,1,.9.41,3.44,3.44,0,0,1,.71.66,3,3,0,0,1,.47.86A2.92,2.92,0,0,1,33,26a3,3,0,0,1-.23,1.17,3.15,3.15,0,0,1-.65.95,3.07,3.07,0,0,1-1,.65A3,3,0,0,1,30,29h-.84a2.06,2.06,0,0,0,.21-.48,3,3,0,0,0,.11-.52H30a1.85,1.85,0,0,0,.78-.16,2.06,2.06,0,0,0,1.06-1.06A1.85,1.85,0,0,0,32,26a1.94,1.94,0,0,0-.16-.8,2,2,0,0,0-.44-.63,2.06,2.06,0,0,0-.66-.42A2.09,2.09,0,0,0,30,24a3.72,3.72,0,0,0-.4-1.19,3.57,3.57,0,0,0-.76-.95,3.5,3.5,0,0,0-1.05-.63A3.41,3.41,0,0,0,26.5,21a3.6,3.6,0,0,0-2.13.73,3.38,3.38,0,0,0-.77.83,3.5,3.5,0,0,0-.48,1.06,2.53,2.53,0,0,0-.75-.46A2.35,2.35,0,0,0,21.5,23a2.5,2.5,0,0,0,0,5h.75l-.5,1H21.5A3.51,3.51,0,0,1,18,25.5a3.59,3.59,0,0,1,.77-2.2,4,4,0,0,1-1.06-1,3.82,3.82,0,0,1-.6-1.37,3.92,3.92,0,0,0,2.45-.2,4.06,4.06,0,0,0,2.13-2.13A3.91,3.91,0,0,0,22,17a3.4,3.4,0,0,0,0-.45c0-.15,0-.3-.08-.44a3.92,3.92,0,0,1,2.23,1.41,3.72,3.72,0,0,1,.65,1.15A4,4,0,0,1,25,20v.13a.66.66,0,0,1,0,.14,4.07,4.07,0,0,1,.74-.2A3.94,3.94,0,0,1,26.5,20a4.31,4.31,0,0,1,1.39.23,4.47,4.47,0,0,1,1.23.63,4.6,4.6,0,0,1,1,1A4.51,4.51,0,0,1,30.76,23.09Zm-11.23-.48a3.39,3.39,0,0,1,.94-.45,3.26,3.26,0,0,1,1-.16,3.52,3.52,0,0,1,1.15.2,4.54,4.54,0,0,1,1.23-1.35,2.59,2.59,0,0,0,.09-.42A3,3,0,0,0,24,20a3,3,0,0,0-.27-1.26,3.12,3.12,0,0,0-.78-1,4.79,4.79,0,0,1-.49,1.54,4.88,4.88,0,0,1-2.2,2.2,4.79,4.79,0,0,1-1.54.49,2.6,2.6,0,0,0,.38.36A4.15,4.15,0,0,0,19.53,22.61Zm5.61,6.66a1.2,1.2,0,0,1,.11.48,1.12,1.12,0,0,1-.1.48,1.27,1.27,0,0,1-.67.67,1.2,1.2,0,0,1-1,0,1.27,1.27,0,0,1-.67-.67,1.12,1.12,0,0,1-.1-.48,1.2,1.2,0,0,1,.11-.48L24,27Zm3-2a1.2,1.2,0,0,1,.11.48,1.12,1.12,0,0,1-.1.48,1.27,1.27,0,0,1-.67.67,1.2,1.2,0,0,1-1,0,1.27,1.27,0,0,1-.67-.67,1.12,1.12,0,0,1-.1-.48,1.2,1.2,0,0,1,.11-.48L27,25Z"/></svg>