<?xml version="1.0" encoding="utf-8"?>
<!-- Generator: Adobe Illustrator 23.0.2, SVG Export Plug-In . SVG Version: 6.00 Build 0)  -->
<svg version="1.1" baseProfile="tiny" id="Layer_1" xmlns="http://www.w3.org/2000/svg" xmlns:xlink="http://www.w3.org/1999/xlink"
	 x="0px" y="0px" viewBox="0 0 24 24" xml:space="preserve">
<path fill="#767676" d="M18.1,4.5v14.2c0,0.7-0.1,1.4-0.4,2S17,22,16.5,22.5s-1,0.8-1.7,1.1s-1.3,0.4-2,0.4s-1.4-0.1-2-0.4
	S9.6,23,9.1,22.5s-0.8-1-1.1-1.7s-0.4-1.3-0.4-2v-15c0-0.5,0.1-1,0.3-1.5s0.5-0.8,0.8-1.2s0.7-0.6,1.2-0.8S10.8,0,11.3,0
	s1,0.1,1.5,0.3s0.8,0.5,1.2,0.8s0.6,0.7,0.8,1.2s0.3,0.9,0.3,1.5v15c0,0.3-0.1,0.6-0.2,0.9s-0.3,0.5-0.5,0.7s-0.4,0.4-0.7,0.5
	S13.2,21,12.8,21S12.2,21,12,20.9s-0.5-0.3-0.7-0.5s-0.4-0.4-0.5-0.7s-0.2-0.6-0.2-0.9V6h1.5v12.7c0,0.2,0.1,0.4,0.2,0.5
	s0.3,0.2,0.5,0.2s0.4-0.1,0.5-0.2s0.2-0.3,0.2-0.5v-15c0-0.3-0.1-0.6-0.2-0.9s-0.3-0.5-0.5-0.7s-0.4-0.4-0.7-0.5s-0.6-0.2-0.9-0.2
	s-0.6,0.1-0.9,0.2S9.9,2,9.7,2.2S9.4,2.6,9.3,2.9S9.1,3.5,9.1,3.8v15c0,0.5,0.1,1,0.3,1.5s0.5,0.8,0.8,1.2s0.7,0.6,1.2,0.8
	s0.9,0.3,1.5,0.3s1-0.1,1.5-0.3s0.8-0.5,1.2-0.8s0.6-0.7,0.8-1.2s0.3-0.9,0.3-1.5V4.5H18.1z"/>
</svg>
