<?xml version="1.0" encoding="utf-8"?>
<!-- Generator: Adobe Illustrator 23.0.2, SVG Export Plug-In . SVG Version: 6.00 Build 0)  -->
<svg version="1.1" id="Layer_1" xmlns="http://www.w3.org/2000/svg" xmlns:xlink="http://www.w3.org/1999/xlink" x="0px" y="0px"
	 viewBox="0 0 48 48" style="enable-background:new 0 0 48 48;" xml:space="preserve">
<style type="text/css">
	.st0{fill:#767676;}
</style>
<g id="Page-1">
	<g>
		<g>
			<path id="path-1" d="M24,0c2.2,0,4.3,0.3,6.4,0.9s4,1.4,5.7,2.4S39.5,5.6,41,7s2.7,3.1,3.8,4.9s1.8,3.7,2.4,5.7S48,21.8,48,24
				s-0.3,4.3-0.8,6.4s-1.4,4-2.4,5.7S42.4,39.5,41,41s-3.1,2.7-4.9,3.8s-3.7,1.8-5.7,2.4S26.2,48,24,48s-4.3-0.3-6.4-0.8
				s-4-1.4-5.7-2.4S8.5,42.4,7,41s-2.7-3.1-3.7-4.9s-1.8-3.7-2.4-5.7S0,26.2,0,24s0.3-4.3,0.9-6.4s1.4-4,2.4-5.7S5.6,8.5,7,7
				s3.1-2.7,4.9-3.7s3.7-1.8,5.7-2.4S21.8,0,24,0z M24,44.8c1.9,0,3.7-0.2,5.5-0.8c1.8-0.5,3.4-1.2,5-2.1c1.5-0.9,2.9-2,4.2-3.2
				S41,36,42,34.5c0.9-1.5,1.6-3.2,2.1-5c0.5-1.8,0.8-3.6,0.8-5.5c0-1.9-0.2-3.7-0.8-5.5c-0.5-1.8-1.2-3.4-2.1-5s-2-2.9-3.2-4.2
				S36,7,34.5,6.1c-1.5-0.9-3.2-1.6-5-2.1c-1.8-0.5-3.6-0.8-5.5-0.8c-1.9,0-3.8,0.2-5.5,0.8s-3.4,1.2-5,2.1s-2.9,2-4.2,3.2
				S7,12,6.1,13.5s-1.6,3.2-2.1,5c-0.5,1.8-0.8,3.6-0.8,5.5s0.2,3.7,0.8,5.5c0.5,1.8,1.2,3.4,2.1,5C7,36,8,37.4,9.3,38.7
				S12,41,13.5,42s3.2,1.6,5,2.1C20.2,44.6,22.1,44.8,24,44.8z M22.4,12.8h3.2v16h-3.2V12.8z M22.4,32h3.2v3.2h-3.2V32z"/>
		</g>
		<g>
			<path class="st0" d="M24,0c2.2,0,4.3,0.3,6.4,0.9s4,1.4,5.7,2.4S39.5,5.6,41,7s2.7,3.1,3.8,4.9s1.8,3.7,2.4,5.7S48,21.8,48,24
				s-0.3,4.3-0.8,6.4s-1.4,4-2.4,5.7S42.4,39.5,41,41s-3.1,2.7-4.9,3.8s-3.7,1.8-5.7,2.4S26.2,48,24,48s-4.3-0.3-6.4-0.8
				s-4-1.4-5.7-2.4S8.5,42.4,7,41s-2.7-3.1-3.7-4.9s-1.8-3.7-2.4-5.7S0,26.2,0,24s0.3-4.3,0.9-6.4s1.4-4,2.4-5.7S5.6,8.5,7,7
				s3.1-2.7,4.9-3.7s3.7-1.8,5.7-2.4S21.8,0,24,0z M24,44.8c1.9,0,3.7-0.2,5.5-0.8c1.8-0.5,3.4-1.2,5-2.1c1.5-0.9,2.9-2,4.2-3.2
				S41,36,42,34.5c0.9-1.5,1.6-3.2,2.1-5c0.5-1.8,0.8-3.6,0.8-5.5c0-1.9-0.2-3.7-0.8-5.5c-0.5-1.8-1.2-3.4-2.1-5s-2-2.9-3.2-4.2
				S36,7,34.5,6.1c-1.5-0.9-3.2-1.6-5-2.1c-1.8-0.5-3.6-0.8-5.5-0.8c-1.9,0-3.8,0.2-5.5,0.8s-3.4,1.2-5,2.1s-2.9,2-4.2,3.2
				S7,12,6.1,13.5s-1.6,3.2-2.1,5c-0.5,1.8-0.8,3.6-0.8,5.5s0.2,3.7,0.8,5.5c0.5,1.8,1.2,3.4,2.1,5C7,36,8,37.4,9.3,38.7
				S12,41,13.5,42s3.2,1.6,5,2.1C20.2,44.6,22.1,44.8,24,44.8z M22.4,12.8h3.2v16h-3.2V12.8z M22.4,32h3.2v3.2h-3.2V32z"/>
		</g>
	</g>
</g>
</svg>
