<?xml version="1.0" encoding="utf-8"?>
<!-- Generator: Adobe Illustrator 23.0.2, SVG Export Plug-In . SVG Version: 6.00 Build 0)  -->
<svg version="1.1" id="Layer_1" xmlns="http://www.w3.org/2000/svg" xmlns:xlink="http://www.w3.org/1999/xlink" x="0px" y="0px"
	 viewBox="0 0 25.6 24" style="enable-background:new 0 0 25.6 24;" xml:space="preserve">
<style type="text/css">
	.st0{fill:#FFFFFF;}
</style>
<title>platformsAsset 31quesitons</title>
<path class="st0" d="M20.6,0c0.7,0,1.3,0.1,1.9,0.4c0.6,0.3,1.1,0.6,1.6,1.1c0.5,0.5,0.8,1,1.1,1.6c0.4,1,0.5,2.1,0.2,3.2
	C25.3,6.6,25.2,7,25,7.3c-0.2,0.4-0.4,0.7-0.7,1c-0.3,0.3-0.6,0.6-0.9,0.8c0.2,0.6,0.4,1.2,0.5,1.8c0.1,0.6,0.2,1.2,0.2,1.8
	c0,1.3-0.2,2.7-0.7,3.9c-0.5,1.2-1.1,2.4-2,3.4l2.5,2.5l-1.1,1.1l-2.5-2.5c-1,0.9-2.2,1.5-3.4,2c-3.8,1.4-8.1,0.7-11.2-2L3,23.8
	l-1.2-1.1l2.5-2.5c-0.9-1-1.5-2.2-2-3.4c-0.5-1.3-0.7-2.6-0.7-3.9c0-0.6,0.1-1.2,0.1-1.9C1.9,10.3,2,9.7,2.2,9.1
	C1.9,8.9,1.6,8.6,1.3,8.3C1,8,0.8,7.7,0.6,7.3C0.4,7,0.3,6.6,0.2,6.2C-0.1,5.2,0,4,0.4,3C0.9,1.9,1.9,0.9,3,0.4C3.7,0.1,4.3,0,5,0
	c0.4,0,0.8,0.1,1.2,0.2C6.6,0.3,7,0.4,7.3,0.6C7.7,0.8,8,1,8.4,1.3c0.3,0.3,0.6,0.6,0.8,0.9C9.7,2,10.3,1.9,11,1.8
	c1.2-0.2,2.5-0.2,3.7,0c0.6,0.1,1.2,0.3,1.8,0.5c0.2-0.3,0.5-0.7,0.8-0.9c0.3-0.3,0.6-0.5,1-0.7c0.4-0.2,0.7-0.3,1.1-0.4
	C19.8,0,20.2,0,20.6,0z M5,1.6c-0.5,0-0.9,0.1-1.3,0.3c-0.8,0.3-1.5,1-1.8,1.8C1.7,4.1,1.6,4.5,1.6,5c0,0.5,0.1,1,0.3,1.5
	c0.2,0.5,0.5,0.9,0.9,1.2c1.1-2.1,2.7-3.7,4.8-4.8C7.3,2.5,6.9,2.1,6.5,1.9C6,1.7,5.5,1.6,5,1.6z M12.8,22.4c1.3,0,2.6-0.2,3.7-0.8
	c2.3-1,4.1-2.8,5.1-5.1c0.5-1.2,0.8-2.4,0.8-3.7c0-1.3-0.2-2.6-0.8-3.7c-1-2.3-2.8-4.1-5.1-5.1c-1.2-0.5-2.4-0.8-3.7-0.8
	c-1.3,0-2.6,0.2-3.7,0.8C6.8,5,5,6.8,4,9.1c-0.5,1.2-0.8,2.4-0.8,3.7c0,1.3,0.2,2.6,0.8,3.7c1,2.3,2.8,4.1,5.1,5.1
	C10.3,22.1,11.5,22.4,12.8,22.4z M17.6,12.8v1.6h-6.4v-8h1.6v6.4L17.6,12.8z M22.7,7.6c0.4-0.3,0.7-0.7,0.9-1.2C23.9,6,24,5.5,24,5
	c0-0.5-0.1-0.9-0.3-1.3c-0.2-0.4-0.4-0.8-0.7-1.1c-0.3-0.3-0.7-0.6-1.1-0.7c-0.4-0.2-0.9-0.3-1.3-0.3c-0.5,0-1,0.1-1.5,0.3
	c-0.4,0.2-0.8,0.5-1.1,0.9C20.1,3.9,21.7,5.6,22.7,7.6L22.7,7.6z"/>
</svg>
