<?xml version="1.0" encoding="utf-8"?>
<!-- Generator: Adobe Illustrator 23.0.2, SVG Export Plug-In . SVG Version: 6.00 Build 0)  -->
<svg version="1.1" id="Layer_1" xmlns="http://www.w3.org/2000/svg" xmlns:xlink="http://www.w3.org/1999/xlink" x="0px" y="0px"
	 viewBox="0 0 20.8 24.8" style="enable-background:new 0 0 20.8 24.8;" xml:space="preserve">
<style type="text/css">
	.st0{fill:#FFFFFF;}
</style>
<title>platformsAsset 33quesitons</title>
<path class="st0" d="M18.6,16.8c0.3,0,0.6,0.1,0.8,0.2c0.3,0.1,0.5,0.3,0.7,0.5c0.2,0.2,0.3,0.4,0.5,0.7c0.1,0.3,0.2,0.5,0.2,0.8
	v5.9h-1.6v-5.9c0-0.1-0.1-0.3-0.2-0.4c-0.1-0.1-0.2-0.2-0.4-0.1H2.1c-0.1,0-0.3,0.1-0.4,0.1c-0.1,0.1-0.2,0.2-0.2,0.4v5.9H0v-5.9
	c0-0.3,0.1-0.6,0.2-0.8c0.1-0.3,0.3-0.5,0.4-0.7c0.2-0.2,0.4-0.3,0.7-0.4c0.3-0.1,0.5-0.2,0.8-0.2h4.3v-1.6H5.3
	c-0.3,0-0.6-0.1-0.8-0.2c-0.3-0.1-0.5-0.3-0.7-0.4c-0.2-0.2-0.3-0.4-0.5-0.7c-0.1-0.3-0.2-0.5-0.2-0.8v-1H1.6V8.8h1.6V7.7
	c0-0.3,0.1-0.6,0.2-0.8c0.1-0.3,0.3-0.5,0.5-0.7C4,6,4.2,5.9,4.5,5.8C4.8,5.7,5,5.6,5.3,5.6h4.3V3C9.3,2.9,9.1,2.6,9,2.4
	C8.9,2.2,8.8,1.9,8.8,1.6c0-0.2,0.1-0.4,0.1-0.6C9,0.8,9.1,0.6,9.3,0.5c0.1-0.2,0.3-0.3,0.5-0.4C10.2,0,10.6,0,11,0.1
	c0.2,0.1,0.4,0.2,0.5,0.3c0.1,0.1,0.3,0.3,0.4,0.5C11.9,1.2,12,1.4,12,1.6c0,0.3-0.1,0.6-0.2,0.8c-0.1,0.2-0.3,0.4-0.6,0.6v2.6h4.3
	c0.3,0,0.6,0.1,0.8,0.2C16.5,5.9,16.8,6,17,6.2c0.2,0.2,0.4,0.4,0.5,0.7c0.1,0.3,0.2,0.5,0.2,0.8v1.1h1.6V12h-1.6v1.1
	c0,0.3-0.1,0.6-0.2,0.8c-0.1,0.3-0.3,0.5-0.5,0.7c-0.2,0.2-0.4,0.3-0.7,0.4c-0.3,0.1-0.5,0.2-0.8,0.2h-1.1v1.6L18.6,16.8z M4.8,13.1
	c0,0.1,0.1,0.3,0.2,0.4c0.1,0.1,0.2,0.2,0.4,0.2h10.1c0.3,0,0.5-0.2,0.5-0.5V7.7c0-0.1-0.1-0.3-0.2-0.4c-0.1-0.1-0.2-0.2-0.4-0.2
	H5.3C5,7.2,4.8,7.4,4.8,7.7c0,0,0,0,0,0V13.1z M6.4,8.8H8v1.6H6.4V8.8z M8,16.8h4.8v-1.6H8L8,16.8z M12.8,8.8h1.6v1.6h-1.6V8.8z"/>
</svg>
