<?xml version="1.0" encoding="utf-8"?>
<!-- Generator: Adobe Illustrator 23.0.2, SVG Export Plug-In . SVG Version: 6.00 Build 0)  -->
<svg version="1.1" id="Layer_1" xmlns="http://www.w3.org/2000/svg" xmlns:xlink="http://www.w3.org/1999/xlink" x="0px" y="0px"
	 viewBox="0 0 25.4 25.4" style="enable-background:new 0 0 25.4 25.4;" xml:space="preserve">
<style type="text/css">
	.st0{fill:#FFFFFF;}
</style>
<title>platformsAsset 39quesitons</title>
<path class="st0" d="M22.2,12.3v0.2c0,0.1,0,0.2,0,0.2c0,0.1,0,0.1,0,0.2v0.2l3.2,2l-2,4.8l-3.7-0.9c-0.2,0.2-0.4,0.4-0.6,0.6
	l0.9,3.7l-4.8,2l-2-3.2h-0.9l-2,3.2l-4.8-2l0.8-3.7c-0.2-0.2-0.4-0.4-0.6-0.6L2,20l-2-4.8l3.2-2c0-0.1,0-0.1,0-0.2
	c0-0.1,0-0.1,0-0.2c0-0.1,0-0.2,0-0.2c0-0.1,0-0.1,0-0.2l-3.2-2l2-4.8l3.7,0.8c0.2-0.2,0.4-0.4,0.6-0.6L5.5,2l4.8-2l2,3.2h0.9l2-3.2
	L20,2l-0.9,3.7c0.2,0.2,0.4,0.4,0.6,0.6l3.7-0.8l2,4.8L22.2,12.3z M20.7,13.9c0-0.2,0-0.4,0-0.6s0-0.4,0-0.6s0-0.4,0-0.6
	s0-0.4,0-0.6l2.9-1.8l-1.1-2.6l-3.4,0.8C19,7.6,18.7,7.3,18.4,7c-0.3-0.3-0.6-0.5-0.9-0.8l0.8-3.4l-2.6-1.1l-1.9,3h-0.6h-0.6
	c-0.2,0-0.4,0-0.6,0h-0.6l-1.8-3L7.1,2.8l0.8,3.4C7.6,6.5,7.3,6.7,7,7C6.7,7.3,6.5,7.6,6.2,7.9L2.8,7.1L1.8,9.7l3,1.9
	c0,0.2,0,0.4,0,0.6c0,0.2,0,0.4,0,0.6c0,0.2,0,0.4,0,0.6s0,0.4,0,0.6l-3,1.8l1.1,2.6l3.4-0.8c0.2,0.3,0.5,0.6,0.8,0.9
	c0.3,0.3,0.6,0.5,0.9,0.8l-0.8,3.4l2.6,1.1l1.9-2.9l0.6,0h0.6h0.6l0.6,0l1.8,2.9l2.6-1.1l-0.8-3.4c0.3-0.2,0.6-0.5,0.9-0.8
	c0.3-0.3,0.5-0.6,0.8-0.9l3.4,0.8l1.1-2.6L20.7,13.9z M12.7,8c0.6,0,1.3,0.1,1.8,0.4c1.1,0.5,2,1.4,2.4,2.5c0.5,1.2,0.5,2.5,0,3.7
	c-0.5,1.1-1.3,2-2.4,2.4c-1.2,0.5-2.5,0.5-3.7,0c-1.1-0.5-2-1.4-2.5-2.5c-0.5-1.2-0.5-2.5,0-3.7c0.5-1.1,1.4-2,2.5-2.5
	C11.5,8.1,12.1,8,12.7,8z M12.7,16c0.4,0,0.9-0.1,1.3-0.2c0.8-0.3,1.4-1,1.8-1.8c0.3-0.8,0.3-1.7,0-2.6c-0.3-0.8-1-1.4-1.8-1.8
	c-0.8-0.3-1.7-0.3-2.6,0c-0.8,0.3-1.4,1-1.8,1.8c-0.3,0.8-0.3,1.7,0,2.6c0.3,0.8,1,1.4,1.8,1.8C11.8,15.9,12.3,16,12.7,16z"/>
</svg>
