<?xml version="1.0" encoding="utf-8"?>
<!-- Generator: Adobe Illustrator 23.0.2, SVG Export Plug-In . SVG Version: 6.00 Build 0)  -->
<svg version="1.1" id="Layer_1" xmlns="http://www.w3.org/2000/svg" xmlns:xlink="http://www.w3.org/1999/xlink" x="0px" y="0px"
	 viewBox="0 0 25.6 8" style="enable-background:new 0 0 25.6 8;" xml:space="preserve">
<style type="text/css">
	.st0{fill:#FFFFFF;}
</style>
<title>platformsAsset 32quesitons</title>
<path class="st0" d="M21.6,0c0.5,0,1.1,0.1,1.5,0.3c0.5,0.2,0.9,0.5,1.3,0.9c0.4,0.4,0.7,0.8,0.9,1.3c0.2,0.5,0.3,1,0.3,1.5
	c0,0.5-0.1,1.1-0.3,1.6c-0.2,0.5-0.5,0.9-0.9,1.3c-0.4,0.4-0.8,0.7-1.3,0.8c-0.5,0.2-1,0.3-1.5,0.3h-3.2c-0.5,0-0.9-0.1-1.4-0.2
	c-0.8-0.3-1.5-0.9-2-1.7c-0.2-0.4-0.4-0.8-0.5-1.3h-3.4c-0.1,0.5-0.3,0.9-0.5,1.3c-0.2,0.4-0.5,0.7-0.9,1C9.4,7.4,9,7.6,8.6,7.7
	C8.1,7.9,7.7,8,7.2,8H4C3.5,8,2.9,7.9,2.4,7.7C2,7.5,1.5,7.2,1.2,6.8C0.8,6.5,0.5,6,0.3,5.6C0.1,5.1,0,4.5,0,4
	c0-0.5,0.1-1.1,0.3-1.5C0.5,2,0.8,1.5,1.2,1.2C1.5,0.8,2,0.5,2.4,0.3C2.9,0.1,3.5,0,4,0h3.2c0.5,0,0.9,0.1,1.4,0.2
	C9,0.4,9.4,0.6,9.7,0.9c0.3,0.3,0.6,0.6,0.9,1c0.2,0.4,0.4,0.8,0.5,1.3h3.4c0.1-0.5,0.3-0.9,0.5-1.3c0.2-0.4,0.5-0.7,0.9-1
	c0.3-0.3,0.7-0.5,1.1-0.7C17.4,0.1,17.9,0,18.4,0H21.6z M7.2,6.4c0.8,0,1.5-0.4,1.9-1C9.3,5.2,9.4,5,9.5,4.8H7.2
	C7,4.8,6.8,4.7,6.6,4.5C6.5,4.4,6.4,4.2,6.4,4c0-0.2,0.1-0.4,0.2-0.6C6.8,3.3,7,3.2,7.2,3.2h2.3C9.4,3,9.3,2.7,9.1,2.5
	C9,2.3,8.8,2.2,8.6,2C8.4,1.9,8.2,1.7,7.9,1.7C7.7,1.6,7.4,1.6,7.2,1.6H4c-0.3,0-0.6,0.1-0.9,0.2C2.5,2,2,2.5,1.8,3.1
	C1.7,3.4,1.6,3.7,1.6,4c0,0.3,0.1,0.6,0.2,0.9c0.1,0.3,0.3,0.6,0.5,0.8c0.2,0.2,0.5,0.4,0.8,0.5C3.4,6.3,3.7,6.4,4,6.4H7.2z
	 M21.6,6.4c0.3,0,0.6-0.1,0.9-0.2c0.3-0.1,0.5-0.3,0.8-0.5c0.2-0.2,0.4-0.5,0.5-0.8c0.2-0.6,0.2-1.3,0-1.9c-0.1-0.3-0.3-0.5-0.5-0.8
	c-0.2-0.2-0.5-0.4-0.8-0.5c-0.3-0.1-0.6-0.2-0.9-0.2h-3.2c-0.2,0-0.5,0-0.7,0.1C17.4,1.8,17.2,1.9,17,2c-0.2,0.1-0.4,0.3-0.5,0.5
	c-0.2,0.2-0.3,0.4-0.4,0.7h2.3c0.2,0,0.4,0.1,0.6,0.2c0.2,0.1,0.2,0.3,0.2,0.6c0,0.4-0.4,0.8-0.8,0.8h-2.3c0.1,0.2,0.2,0.5,0.4,0.7
	C16.6,5.6,16.8,5.8,17,6c0.4,0.3,0.9,0.4,1.4,0.4L21.6,6.4z"/>
</svg>
