<?xml version="1.0" encoding="utf-8"?>
<!-- Generator: Adobe Illustrator 23.0.2, SVG Export Plug-In . SVG Version: 6.00 Build 0)  -->
<svg version="1.1" id="Layer_1" xmlns="http://www.w3.org/2000/svg" xmlns:xlink="http://www.w3.org/1999/xlink" x="0px" y="0px"
	 viewBox="0 0 20.8 23.2" style="enable-background:new 0 0 20.8 23.2;" xml:space="preserve">
<style type="text/css">
	.st0{fill:#FFFFFF;}
</style>
<title>platformsAsset 38quesitons</title>
<path class="st0" d="M20.8,16.8c0,0.5-0.1,1-0.4,1.4c-0.3,0.4-0.6,0.7-1,1c-0.4,0.3-0.8,0.5-1.3,0.6c-0.9,0.3-1.9,0.3-2.8,0
	c-0.5-0.1-0.9-0.3-1.3-0.6c-0.4-0.3-0.7-0.6-0.9-1c-0.3-0.4-0.4-0.9-0.4-1.4c0-0.5,0.1-1,0.4-1.4c0.2-0.4,0.6-0.7,0.9-1
	c0.4-0.3,0.8-0.5,1.3-0.6c0.5-0.1,0.9-0.2,1.4-0.2c0.4,0,0.8,0.1,1.2,0.1c0.4,0.1,0.8,0.3,1.1,0.5V2L8,4.8V20c0,0.5-0.1,1-0.4,1.4
	c-0.3,0.4-0.6,0.7-1,1c-0.4,0.3-0.8,0.5-1.3,0.6c-0.4,0.1-0.9,0.2-1.3,0.2c-0.5,0-0.9-0.1-1.4-0.2c-0.5-0.1-0.9-0.4-1.3-0.6
	c-0.4-0.3-0.7-0.6-0.9-1c-0.5-0.8-0.5-1.9,0-2.7c0.3-0.4,0.6-0.7,1-1c0.4-0.3,0.8-0.5,1.2-0.6c0.5-0.1,0.9-0.2,1.4-0.2
	c0.4,0,0.8,0.1,1.2,0.2c0.4,0.1,0.8,0.3,1.2,0.5V3.6L20.8,0V16.8z M4,21.6c0.3,0,0.5,0,0.8-0.1c0.3-0.1,0.5-0.2,0.8-0.3
	c0.2-0.1,0.4-0.3,0.6-0.5c0.2-0.2,0.3-0.5,0.3-0.7c0-0.3-0.1-0.5-0.2-0.7c-0.2-0.2-0.4-0.4-0.6-0.5c-0.2-0.1-0.5-0.2-0.8-0.3
	c-0.2-0.1-0.5-0.1-0.8-0.1c-0.3,0-0.5,0-0.8,0.1c-0.3,0.1-0.5,0.2-0.8,0.3c-0.2,0.1-0.4,0.3-0.6,0.5c-0.2,0.2-0.3,0.5-0.2,0.7
	c0,0.3,0.1,0.5,0.2,0.7c0.2,0.2,0.4,0.4,0.6,0.5c0.2,0.1,0.5,0.2,0.8,0.3C3.5,21.6,3.7,21.6,4,21.6z M16.8,18.4c0.3,0,0.5,0,0.8-0.1
	c0.3-0.1,0.5-0.2,0.8-0.3c0.2-0.1,0.4-0.3,0.6-0.5c0.3-0.4,0.3-1,0-1.4c-0.2-0.2-0.4-0.4-0.6-0.5c-0.5-0.3-1-0.4-1.5-0.4
	c-0.3,0-0.5,0-0.8,0.1c-0.3,0.1-0.5,0.2-0.8,0.3c-0.2,0.1-0.4,0.3-0.6,0.5c-0.3,0.4-0.3,1,0,1.4c0.2,0.2,0.4,0.4,0.6,0.5
	c0.2,0.1,0.5,0.2,0.8,0.3C16.3,18.4,16.5,18.4,16.8,18.4z"/>
</svg>
